<svg version="1.1" id="Layer_1" xmlns="http://www.w3.org/2000/svg" xmlns:xlink="http://www.w3.org/1999/xlink" x="0px" y="0px"
	 width="100%" viewBox="0 0 500 281" enable-background="new 0 0 500 281" xml:space="preserve">
<path fill="#000000" opacity="1.000000" stroke="none" 
	d="
M462.000000,282.000000 
	C308.000031,282.000000 154.500061,282.000000 1.000062,282.000000 
	C1.000041,188.333374 1.000041,94.666756 1.000021,1.000099 
	C167.666595,1.000066 334.333191,1.000066 500.999817,1.000033 
	C500.999878,94.666573 500.999878,188.333145 500.999939,281.999878 
	C488.166656,282.000000 475.333344,282.000000 462.000000,282.000000 
M284.012451,158.071838 
	C284.012451,149.575836 284.012451,141.079849 284.012451,132.583847 
	C283.000031,138.380142 282.898132,144.173965 283.039215,149.961838 
	C283.120544,153.298996 283.594421,156.626587 284.836731,159.985870 
	C289.200134,159.985870 293.563538,159.985870 297.926941,159.985870 
	C297.928131,159.655869 297.929321,159.325851 297.930511,158.995850 
	C293.345886,158.995850 288.761261,158.995850 284.012451,158.071838 
M300.713257,155.223373 
	C296.937317,155.223373 293.161377,155.223373 288.607544,155.223373 
	C288.607544,147.102203 288.607544,139.568512 288.607544,132.034836 
	C288.400452,132.060623 288.193359,132.086395 287.986267,132.112183 
	C287.986267,140.025223 287.986267,147.938263 287.986267,155.777344 
	C292.405365,155.992599 296.198181,156.177368 299.980408,156.986282 
	C300.399445,157.537140 300.818481,158.087982 301.237518,158.638840 
	C301.165588,157.777008 301.093658,156.915192 300.713257,155.223373 
M216.888229,158.577942 
	C216.925461,149.188858 216.995407,139.799652 216.958206,130.410858 
	C216.953598,129.245880 216.379852,128.083130 215.794739,126.248154 
	C213.014618,125.165085 210.268463,123.265289 207.448196,123.148056 
	C197.992081,122.754990 188.509506,123.000198 179.037064,122.997116 
	C172.835587,122.995102 171.008987,124.860229 170.998779,131.266968 
	C170.985016,139.908447 170.979019,148.549988 170.988342,157.191467 
	C170.993561,162.032104 173.993042,164.992188 178.937347,165.003464 
	C189.074432,165.026550 199.212219,164.951172 209.348404,165.050873 
	C213.588196,165.092575 215.740219,163.120789 216.888229,158.577942 
M250.011505,153.337494 
	C250.011505,155.370193 250.011505,157.402908 250.011505,159.435608 
	C250.147156,159.427963 250.282822,159.420334 250.418472,159.412689 
	C250.418472,150.293335 250.418472,141.173965 250.418472,132.054611 
	C250.283051,132.064758 250.147614,132.074905 250.012192,132.085052 
	C250.012192,138.849030 250.012192,145.612991 250.011505,153.337494 
z"/>
<path fill="#3560FD" opacity="1.000000" stroke="none" 
	d="
M216.140213,159.011215 
	C215.740219,163.120789 213.588196,165.092575 209.348404,165.050873 
	C199.212219,164.951172 189.074432,165.026550 178.937347,165.003464 
	C173.993042,164.992188 170.993561,162.032104 170.988342,157.191467 
	C170.979019,148.549988 170.985016,139.908447 170.998779,131.266968 
	C171.008987,124.860229 172.835587,122.995102 179.037064,122.997116 
	C188.509506,123.000198 197.992081,122.754990 207.448196,123.148056 
	C210.268463,123.265289 213.014618,125.165085 215.875641,127.054184 
	C216.017776,138.243881 216.078995,148.627548 216.140213,159.011215 
M178.329865,151.898758 
	C182.304596,158.840195 188.367050,161.899658 196.211197,160.940308 
	C202.841293,160.129440 207.484772,156.170029 209.876343,150.083282 
	C212.173935,144.235748 212.025040,138.240448 207.653549,133.269501 
	C203.211166,128.217926 197.954453,125.315872 190.592682,126.529663 
	C180.947556,128.119919 172.146042,140.071213 178.329865,151.898758 
z"/>
<path fill="#FFFFFF" opacity="1.000000" stroke="none" 
	d="
M299.990967,156.362122 
	C296.198181,156.177368 292.405365,155.992599 287.986267,155.777344 
	C287.986267,147.938263 287.986267,140.025223 287.986267,132.112183 
	C288.193359,132.086395 288.400452,132.060623 288.607544,132.034836 
	C288.607544,139.568512 288.607544,147.102203 288.607544,155.223373 
	C293.161377,155.223373 296.937317,155.223373 300.629944,155.782745 
	C300.361359,156.348801 300.176147,156.355453 299.990967,156.362122 
z"/>
<path fill="#FFFFFF" opacity="1.000000" stroke="none" 
	d="
M216.514221,158.794586 
	C216.078995,148.627548 216.017776,138.243881 216.013184,127.389786 
	C216.379852,128.083130 216.953598,129.245880 216.958206,130.410858 
	C216.995407,139.799652 216.925461,149.188858 216.514221,158.794586 
z"/>
<path fill="#BDBDBD" opacity="1.000000" stroke="none" 
	d="
M250.011841,152.857224 
	C250.012192,145.612991 250.012192,138.849030 250.012192,132.085052 
	C250.147614,132.074905 250.283051,132.064758 250.418472,132.054611 
	C250.418472,141.173965 250.418472,150.293335 250.418472,159.412689 
	C250.282822,159.420334 250.147156,159.427963 250.011505,159.435608 
	C250.011505,157.402908 250.011505,155.370193 250.011841,152.857224 
z"/>
<path fill="#FFFFFF" opacity="1.000000" stroke="none" 
	d="
M283.891632,159.958481 
	C283.594421,156.626587 283.120544,153.298996 283.039215,149.961838 
	C282.898132,144.173965 283.000031,138.380142 284.012451,132.583847 
	C284.012451,141.079849 284.012451,149.575836 284.015167,158.772095 
	C283.975830,159.634399 283.933746,159.796448 283.891632,159.958481 
z"/>
<path fill="#050505" opacity="1.000000" stroke="none" 
	d="
M284.364197,159.972168 
	C283.933746,159.796448 283.975830,159.634399 284.097260,159.234100 
	C288.761261,158.995850 293.345886,158.995850 297.930511,158.995850 
	C297.929321,159.325851 297.928131,159.655869 297.926941,159.985870 
	C293.563538,159.985870 289.200134,159.985870 284.364197,159.972168 
z"/>
<path fill="#050505" opacity="1.000000" stroke="none" 
	d="
M299.985687,156.674194 
	C300.176147,156.355453 300.361359,156.348801 300.784180,156.197754 
	C301.093658,156.915192 301.165588,157.777008 301.237518,158.638840 
	C300.818481,158.087982 300.399445,157.537140 299.985687,156.674194 
z"/>
<path fill="#3258FE" opacity="1.000000" stroke="none" 
	d="
M178.091248,151.596558 
	C172.146042,140.071213 180.947556,128.119919 190.592682,126.529663 
	C197.954453,125.315872 203.211166,128.217926 207.653549,133.269501 
	C212.025040,138.240448 212.173935,144.235748 209.876343,150.083282 
	C207.484772,156.170029 202.841293,160.129440 196.211197,160.940308 
	C188.367050,161.899658 182.304596,158.840195 178.091248,151.596558 
M182.510788,142.449417 
	C181.591904,146.700363 181.719131,150.478027 187.123184,152.580902 
	C187.736191,152.681702 188.349213,152.782501 189.069351,153.655365 
	C192.291138,158.117920 195.675430,155.699890 199.798859,153.951752 
	C199.983871,153.251816 200.456909,152.482300 200.307343,151.863190 
	C199.309311,147.731766 198.841919,143.873627 203.718918,141.707535 
	C204.130447,141.524765 204.288620,140.771530 204.647171,140.137024 
	C197.968628,139.880890 197.985382,139.870926 194.644928,134.253571 
	C194.339493,133.739960 193.639496,133.460953 192.324493,133.031082 
	C188.009018,133.411896 184.209824,134.424973 183.419113,140.121445 
	C183.315079,140.732178 183.211029,141.342911 182.510788,142.449417 
z"/>
<path fill="#000000" opacity="1.000000" stroke="none" 
	d="
M193.122726,133.073013 
	C193.639496,133.460953 194.339493,133.739960 194.644928,134.253571 
	C197.985382,139.870926 197.968628,139.880890 204.647171,140.137024 
	C204.288620,140.771530 204.130447,141.524765 203.718918,141.707535 
	C198.841919,143.873627 199.309311,147.731766 200.307343,151.863190 
	C200.456909,152.482300 199.983871,153.251816 199.277390,153.602600 
	C194.074234,148.979355 192.532303,148.921082 188.962219,152.883301 
	C188.349213,152.782501 187.736191,152.681702 187.138931,151.961426 
	C190.826706,146.047638 187.002853,143.985123 183.106979,141.953644 
	C183.211029,141.342911 183.315079,140.732178 184.120377,140.046448 
	C190.180557,140.790863 192.654984,138.139297 193.122726,133.073013 
z"/>
<path fill="#3055FE" opacity="1.000000" stroke="none" 
	d="
M182.808884,142.201538 
	C187.002853,143.985123 190.826706,146.047638 186.993256,151.671021 
	C181.719131,150.478027 181.591904,146.700363 182.808884,142.201538 
z"/>
<path fill="#3055FE" opacity="1.000000" stroke="none" 
	d="
M192.723602,133.052048 
	C192.654984,138.139297 190.180557,140.790863 184.409668,139.901093 
	C184.209824,134.424973 188.009018,133.411896 192.723602,133.052048 
z"/>
<path fill="#3055FE" opacity="1.000000" stroke="none" 
	d="
M189.015778,153.269333 
	C192.532303,148.921082 194.074234,148.979355 198.900635,153.572205 
	C195.675430,155.699890 192.291138,158.117920 189.015778,153.269333 
z"/>
</svg>