<?xml version="1.0" standalone="no"?>
<!DOCTYPE svg PUBLIC "-//W3C//DTD SVG 20010904//EN"
 "http://www.w3.org/TR/2001/REC-SVG-20010904/DTD/svg10.dtd">
<svg version="1.0" xmlns="http://www.w3.org/2000/svg"
 width="173.000000pt" height="163.000000pt" viewBox="0 0 173.000000 163.000000"
 preserveAspectRatio="xMidYMid meet">

<g transform="translate(0.000000,163.000000) scale(0.100000,-0.100000)"
fill="#000000" stroke="none">
<path d="M237 1619 c-94 -22 -179 -96 -213 -185 -18 -46 -19 -82 -19 -614 0
-533 1 -568 19 -615 25 -65 94 -137 159 -166 l52 -24 626 0 626 0 69 35 c82
42 137 111 154 195 7 35 10 234 8 606 l-3 554 -24 49 c-33 65 -82 113 -150
145 l-56 26 -605 2 c-334 1 -622 -3 -643 -8z m642 -303 c6 -7 27 -65 47 -127
20 -63 43 -127 51 -142 23 -46 65 -57 222 -57 113 0 140 -3 145 -15 7 -19 -7
-32 -125 -116 -55 -39 -106 -81 -114 -92 -23 -33 -18 -68 26 -208 40 -126 44
-159 16 -159 -8 0 -67 38 -132 85 -156 113 -155 113 -309 0 -64 -47 -123 -85
-132 -85 -28 0 -26 30 15 152 45 136 50 184 22 219 -10 13 -66 58 -124 99 -78
55 -106 81 -107 97 0 21 3 22 154 25 202 4 196 -1 256 179 56 168 62 178 89
145z"/>
</g>
</svg>
